<svg width="562" height="562" viewBox="0 0 562 562" fill="none" xmlns="http://www.w3.org/2000/svg">
<rect width="562" height="562" fill="#E5E5E5"/>
<circle cx="281" cy="281" r="281" fill="#F4D0C1"/>
<path d="M187.056 132.844C133.672 78.006 114.901 128.827 112.316 167.559C111.966 172.801 117.034 176.553 121.74 174.215C124.341 172.922 126.689 171.518 128.863 170.088C135.628 165.642 192.702 138.644 187.056 132.844Z" fill="#FDF5D8" stroke="#FDF5D8" stroke-width="12"/>
<path d="M377.21 132.05C430.594 77.2122 449.365 128.033 451.95 166.765C452.3 172.008 447.232 175.76 442.526 173.421C439.925 172.128 437.577 170.724 435.403 169.295C428.638 164.848 371.564 137.85 377.21 132.05Z" fill="white" stroke="white" stroke-width="10"/>
<path d="M111.826 191.096C100.694 139.167 112.248 50.4799 198.311 138.521" stroke="#6E4139" stroke-width="12"/>
<path d="M448.485 192.096C459.617 140.167 448.063 51.4799 362 139.521" stroke="#6E4139" stroke-width="12"/>
<path d="M281 470C220 470 161.499 451.668 118.365 419.037C75.2321 386.405 51 342.148 51 296C51 249.852 75.2321 205.595 118.365 172.963C161.499 140.332 220 122 281 122V296L281 470Z" fill="white"/>
<path d="M279 470C340 470 398.501 451.668 441.635 419.037C484.768 386.405 509 342.148 509 296C509 249.852 484.768 205.595 441.635 172.963C398.501 140.332 340 122 279 122V296L279 470Z" fill="#FDF5D8"/>
<rect x="111.087" y="255" width="39.0504" height="14.8728" rx="7.43642" transform="rotate(20 111.087 255)" fill="#6E4139"/>
<rect x="102" y="290.682" width="39.0504" height="14.8728" rx="7.43642" transform="rotate(-0.999999 102 290.682)" fill="#6E4139"/>
<rect x="180" y="237.682" width="39.0504" height="14.8728" rx="7.43642" transform="rotate(-0.999999 180 237.682)" fill="#6E4139"/>
<rect x="332" y="236.682" width="39.0504" height="14.8728" rx="7.43642" transform="rotate(-0.999999 332 236.682)" fill="#6E4139"/>
<rect width="39.0504" height="14.8728" rx="7.43642" transform="matrix(-0.939693 0.34202 0.34202 0.939693 443.695 256)" fill="#6E4139"/>
<rect x="105.776" y="328.919" width="39.0504" height="14.8728" rx="7.43642" transform="rotate(-18.5 105.776 328.919)" fill="#6E4139"/>
<rect width="39.0504" height="14.8728" rx="7.43642" transform="matrix(-0.948324 -0.317305 -0.317305 0.948324 448.752 328.391)" fill="#6E4139"/>
<rect width="39.0504" height="14.8728" rx="7.43642" transform="matrix(-0.999848 -0.0174524 -0.0174524 0.999848 452.304 291.682)" fill="#6E4139"/>
<circle cx="200.5" cy="256.5" r="11.5" fill="#6E4139"/>
<circle cx="352.5" cy="256.5" r="11.5" fill="#6E4139"/>
<path d="M265.865 288.878C263.451 284.843 266.406 279.726 271.107 279.799L290.47 280.098C295.048 280.168 297.863 285.133 295.574 289.097L286.151 305.418C283.862 309.383 278.155 309.427 275.805 305.498L265.865 288.878Z" fill="#6E4139"/>
<path d="M213 346.623C232.333 358.861 273 372.76 281 330.442" stroke="#6E4139" stroke-width="12"/>
<circle cx="213.5" cy="346.5" r="6.5" fill="#6E4139"/>
<circle cx="348.5" cy="346.5" r="6.5" fill="#6E4139"/>
<ellipse cx="281" cy="329.808" rx="6" ry="3.80769" fill="black"/>
<path d="M349 346.623C329.667 358.861 289 372.76 281 330.442" stroke="#6E4139" stroke-width="12"/>
<ellipse cx="6" cy="3.80769" rx="6" ry="3.80769" transform="matrix(-1 0 0 1 287 326)" fill="#6E4139"/>
<path d="M247 135C247 161.51 238.717 183 228.5 183C218.283 183 210 161.51 210 135C228.5 125 218.283 130 228.5 130C238.717 130 234 125 247 135Z" fill="#FF914D"/>
<path d="M301 135C301 173.107 291.822 204 280.5 204C269.178 204 260 173.107 260 135C274 110 280.5 140 280.5 128C291.822 128 289 121 301 135Z" fill="#FF914D"/>
<path d="M351 135C351 161.51 342.717 183 332.5 183C322.283 183 314 161.51 314 135C332.5 135 322.283 135 332.5 135C342.717 135 338 135 351 135Z" fill="#FF914D"/>
<path d="M280 129.5C341.748 129.5 397.368 148.526 437.39 178.936C477.406 209.341 501.5 250.799 501.5 296C501.5 341.201 477.406 382.659 437.39 413.064C397.368 443.474 341.748 462.5 280 462.5C218.252 462.5 162.632 443.474 122.61 413.064C82.5945 382.659 58.5 341.201 58.5 296C58.5 250.799 82.5945 209.341 122.61 178.936C162.632 148.526 218.252 129.5 280 129.5Z" stroke="#6E4139" stroke-width="15"/>
</svg>
